Coordinates
version=1
nRows=17
nColumns=24
inDegrees=yes

Units are S.I. units (second, meters, Newtons, ...)
Angles are in degrees.

endheader
time	pelvis_tilt	pelvis_list	pelvis_rotation	pelvis_tx	pelvis_ty	pelvis_tz	hip_flexion_r	hip_adduction_r	hip_rotation_r	knee_angle_r	ankle_angle_r	subtalar_angle_r	mtp_angle_r	hip_flexion_l	hip_adduction_l	hip_rotation_l	knee_angle_l	ankle_angle_l	subtalar_angle_l	mtp_angle_l	lumbar_extension	lumbar_bending	lumbar_rotation
      0.81650000	     -0.68099802	     -1.38174949	      1.16641744	     -0.47168126	      0.99813918	      0.32074203	     13.14096879	      5.15515189	      1.04309460	    -22.03112315	     12.71539209	    -12.03816179	     -0.16657082	     15.28615293	     -2.20788193	     -4.43916136	    -71.62031930	     -8.60226999	    -10.41964132	      4.34637188	    -11.63561718	      9.32164944	     -1.24129238
      0.82066667	     -0.60383126	     -1.22381209	      1.15046718	     -0.46686347	      0.99924534	      0.32105104	     12.53828794	      5.02980743	      1.17653592	    -21.60179722	     12.75574936	    -12.11551073	     -0.18673148	     15.78747482	     -2.11753992	     -4.54996897	    -71.50436576	     -8.20805116	    -10.77788828	      4.12345878	    -11.79567091	      9.00518750	     -0.77051025
      0.82483333	     -0.54539525	     -1.07608232	      1.14114477	     -0.46203041	      1.00028050	      0.32133350	     11.95541522	      4.90648097	      1.27202743	    -21.17244452	     12.81482235	    -12.14724090	     -0.20740073	     16.30129390	     -2.03549448	     -4.65211953	    -71.34900093	     -7.76417128	    -11.06560639	      3.88760205	    -11.90014852	      8.73855229	     -0.46536590
      0.82900000	     -0.49525677	     -0.91710775	      1.12700322	     -0.45719663	      1.00129875	      0.32160889	     11.37810276	      4.76891347	      1.36863047	    -20.73587644	     12.86835046	    -12.16866592	     -0.22837615	     16.80915926	     -1.93519242	     -4.75308587	    -71.13235989	     -7.35258925	    -11.35293968	      3.64801503	    -11.99352957	      8.46617631	     -0.18046262
      0.83316667	     -0.42969724	     -0.75141967	      1.10851102	     -0.45236103	      1.00229592	      0.32187250	     10.78517714	      4.61969714	      1.44946147	    -20.30244289	     12.93749426	    -12.15668560	     -0.24836985	     17.28638897	     -1.82644173	     -4.85689758	    -70.86481658	     -6.92887799	    -11.59753398	      3.42259583	    -12.10061697	      8.19137652	      0.08958742
      0.83733333	     -0.38466072	     -0.59108422	      1.08641948	     -0.44752725	      1.00324074	      0.32212974	     10.21098111	      4.47445076	      1.52813355	    -19.85871681	     12.99059471	    -12.15729269	     -0.26787827	     17.77454964	     -1.71911288	     -4.95826789	    -70.54792633	     -6.51137878	    -11.82335964	      3.21189207	    -12.18322955	      7.91817888	      0.36481890
      0.84150000	     -0.35078758	     -0.41917445	      1.06589945	     -0.44272002	      1.00412299	      0.32236641	      9.65948201	      4.31113915	      1.59103061	    -19.43524077	     13.03636541	    -12.12152008	     -0.28042573	     18.26657169	     -1.59049782	     -5.04909924	    -70.18720055	     -6.07095053	    -12.03263582	      3.08376431	    -12.26055100	      7.64241169	      0.55635446
      0.84566667	     -0.27945480	     -0.27191339	      1.02808506	     -0.43786732	      1.00504318	      0.32261710	      9.04530211	      4.17620239	      1.66922343	    -18.96559939	     13.10755705	    -12.07908638	     -0.31269865	     18.69559872	     -1.49977919	     -5.15907478	    -69.76911961	     -5.65660274	    -12.20832424	      2.74604523	    -12.37226149	      7.39407667	      0.95021816
      0.84983333	     -0.27123496	     -0.08363921	      1.01659245	     -0.43302611	      1.00583610	      0.32280727	      8.52025468	      3.98384213	      1.68321944	    -18.54334656	     13.15418361	    -12.04823420	     -0.32025309	     19.18382005	     -1.34174680	     -5.23459515	    -69.29730408	     -5.23298254	    -12.34443030	      2.68384275	    -12.38052687	      7.11669570	      1.03035048
      0.85400000	     -0.18333713	      0.07611710	      0.98983894	     -0.42820577	      1.00669722	      0.32302506	      7.88859928	      3.82871155	      1.73832306	    -18.07057929	     13.24015466	    -11.99222451	     -0.33651247	     19.57247209	     -1.22288604	     -5.31638850	    -68.78074144	     -4.82672682	    -12.41948145	      2.52798536	    -12.52894745	      6.83346569	      1.36213594
      0.85816667	     -0.17009417	      0.24613210	      0.96869781	     -0.42339055	      1.00740338	      0.32318689	      7.35895087	      3.65152301	      1.75192914	    -17.64192502	     13.26756831	    -11.92686947	     -0.34576121	     20.03242306	     -1.07532632	     -5.38138702	    -68.22381014	     -4.37831489	    -12.52128488	      2.45368798	    -12.56835568	      6.58130230	      1.50917200
      0.86233333	     -0.10850105	      0.38611801	      0.94617143	     -0.41856657	      1.00813011	      0.32337597	      6.75579273	      3.51167431	      1.78931285	    -17.16745794	     13.35755387	    -11.86291901	     -0.36177972	     20.42746373	     -0.96900399	     -5.44090565	    -67.62427886	     -3.95174525	    -12.51944857	      2.30713232	    -12.67906179	      6.33171003	      1.83442223
      0.86650000	     -0.07540445	      0.54666589	      0.92389876	     -0.41373938	      1.00879207	      0.32352541	      6.19481693	      3.34220971	      1.79834671	    -16.71670174	     13.41790070	    -11.78375853	     -0.37840749	     20.83533564	     -0.82752968	     -5.49399401	    -66.96775835	     -3.52174861	    -12.54236399	      2.16266407	    -12.74309910	      6.07550878	      2.05949534
      0.87066667	     -0.09290642	      0.68221556	      0.91337960	     -0.40892987	      1.00930712	      0.32364151	      5.69730344	      3.19457367	      1.77948192	    -16.27887665	     13.43896952	    -11.70097977	     -0.38554710	     21.29661739	     -0.70391034	     -5.52548279	    -66.28835087	     -3.07695203	    -12.57578998	      2.10881175	    -12.73702923	      5.85917386	      2.16925855
      0.87483333	     -0.00283004	      0.81521930	      0.89482271	     -0.40410654	      1.00994891	      0.32376166	      5.06225460	      3.05253741	      1.78550510	    -15.79810297	     13.52486418	    -11.61008385	     -0.39890089	     21.61534122	     -0.58405266	     -5.55021403	    -65.54466917	     -2.63342924	    -12.47242029	      1.98421419	    -12.88323382	      5.64701797	      2.45157764
      0.87900000	     -0.01160154	      0.95976284	      0.88322263	     -0.39929703	      1.01041001	      0.32384723	      4.55597754	      2.89014938	      1.75226628	    -15.35837314	     13.53616565	    -11.51915948	     -0.40616069	     22.03243647	     -0.43705296	     -5.56282142	    -64.75937789	     -2.20456375	    -12.45170391	      1.92634509	    -12.89673320	      5.41736012	      2.57335714
      0.88316667	     -0.00041284	      1.09072465	      0.86960317	     -0.39447982	      1.01084256	      0.32390413	      4.02577954	      2.74113276	      1.73057642	    -14.91714776	     13.59344872	    -11.41259800	     -0.41349989	     22.40991865	     -0.29576368	     -5.55312096	    -63.92655845	     -1.77392643	    -12.34335662	      1.85020876	    -12.94006127	      5.23449263	      2.77844001
